<svg width="1440" height="834" viewBox="0 0 1440 834" fill="none" xmlns="http://www.w3.org/2000/svg">
<g clip-path="url(#clip0_58_22643)">
<rect width="1440" height="834" fill="#111D16"/>
<g clip-path="url(#clip1_58_22643)">
<mask id="mask0_58_22643" style="mask-type:alpha" maskUnits="userSpaceOnUse" x="1235" y="-83" width="337" height="298">
<rect width="364.088" height="86.6618" transform="matrix(-0.77467 -0.632365 -0.632365 0.77467 1571.85 147.669)" fill="url(#paint0_linear_58_22643)"/>
</mask>
<g mask="url(#mask0_58_22643)">
<g opacity="0.3" clip-path="url(#clip2_58_22643)">
<rect x="1380.43" y="25.6295" width="42.4459" height="42.4459" rx="8.49657" transform="rotate(-140.775 1380.43 25.6295)" stroke="#25D46F" stroke-width="4.24829"/>
</g>
<g opacity="0.3" clip-path="url(#clip3_58_22643)">
<rect x="1432.81" y="66.2989" width="42.4459" height="42.4459" rx="8.49657" transform="rotate(-140.775 1432.81 66.2989)" stroke="#25D46F" stroke-width="4.24829"/>
</g>
<g opacity="0.3" clip-path="url(#clip4_58_22643)">
<rect x="1428.43" y="23.0729" width="42.4459" height="42.4459" rx="8.49657" transform="rotate(-140.775 1428.43 23.0729)" stroke="#25D46F" stroke-width="4.24829"/>
</g>
<g opacity="0.3" clip-path="url(#clip5_58_22643)">
<rect x="1335.16" y="32.5067" width="42.4459" height="42.4459" rx="8.49657" transform="rotate(-140.775 1335.16 32.5067)" stroke="#25D46F" stroke-width="4.24829"/>
</g>
<g opacity="0.3" clip-path="url(#clip6_58_22643)">
<rect x="1439.12" y="117.372" width="42.4459" height="42.4459" rx="8.49657" transform="rotate(-140.775 1439.12 117.372)" stroke="#25D46F" stroke-width="4.24829"/>
</g>
<g opacity="0.3" clip-path="url(#clip7_58_22643)">
<rect x="1387.53" y="73.1756" width="42.4459" height="42.4459" rx="8.49657" transform="rotate(-140.775 1387.53 73.1756)" stroke="#25D46F" stroke-width="4.24829"/>
</g>
<g opacity="0.3" clip-path="url(#clip8_58_22643)">
<rect x="2.98875" y="-0.302277" width="42.4459" height="42.4459" rx="8.49657" transform="matrix(0.77467 0.632365 0.632365 -0.77467 1384.81 28.8206)" stroke="#F1B4EF" stroke-width="4.24829"/>
</g>
<g opacity="0.3" clip-path="url(#clip9_58_22643)">
<rect x="2.98875" y="-0.302277" width="42.4459" height="42.4459" rx="8.49657" transform="matrix(0.77467 0.632365 0.632365 -0.77467 1437.19 69.4896)" stroke="#F1B4EF" stroke-width="4.24829"/>
</g>
<g opacity="0.3" clip-path="url(#clip10_58_22643)">
<rect x="2.98875" y="-0.302277" width="42.4459" height="42.4459" rx="8.49657" transform="matrix(0.77467 0.632365 0.632365 -0.77467 1432.82 26.2637)" stroke="#F1B4EF" stroke-width="4.24829"/>
</g>
<g opacity="0.3" clip-path="url(#clip11_58_22643)">
<rect x="2.98875" y="-0.302277" width="42.4459" height="42.4459" rx="8.49657" transform="matrix(0.77467 0.632365 0.632365 -0.77467 1339.54 35.6974)" stroke="#F1B4EF" stroke-width="4.24829"/>
</g>
<g opacity="0.3" clip-path="url(#clip12_58_22643)">
<rect x="2.98875" y="-0.302277" width="42.4459" height="42.4459" rx="8.49657" transform="matrix(0.77467 0.632365 0.632365 -0.77467 1287.96 -8.49911)" stroke="#F1B4EF" stroke-width="4.24829"/>
</g>
<g opacity="0.3" clip-path="url(#clip13_58_22643)">
<rect x="2.98875" y="-0.302277" width="42.4459" height="42.4459" rx="8.49657" transform="matrix(0.77467 0.632365 0.632365 -0.77467 1391.92 76.3666)" stroke="#F1B4EF" stroke-width="4.24829"/>
</g>
<g opacity="0.3" clip-path="url(#clip14_58_22643)">
<rect x="1382.08" y="36.8926" width="42.4459" height="42.4459" rx="8.49657" transform="rotate(39.2248 1382.08 36.8926)" stroke="#25D46F" stroke-width="4.24829"/>
</g>
<g opacity="0.3" clip-path="url(#clip15_58_22643)">
<rect x="1330.5" y="-7.3038" width="42.4459" height="42.4459" rx="8.49657" transform="rotate(39.2248 1330.5 -7.3038)" stroke="#25D46F" stroke-width="4.24829"/>
</g>
<g opacity="0.3" clip-path="url(#clip16_58_22643)">
<rect x="1434.46" y="77.5618" width="42.4459" height="42.4459" rx="8.49657" transform="rotate(39.2248 1434.46 77.5618)" stroke="#25D46F" stroke-width="4.24829"/>
</g>
<g opacity="0.3" clip-path="url(#clip17_58_22643)">
<rect x="1378.73" y="-7.58584" width="42.4459" height="42.4459" rx="8.49657" transform="rotate(39.2248 1378.73 -7.58584)" stroke="#25D46F" stroke-width="4.24829"/>
</g>
<g opacity="0.3" clip-path="url(#clip18_58_22643)">
<rect x="1431.11" y="33.0833" width="42.4459" height="42.4459" rx="8.49657" transform="rotate(39.2248 1431.11 33.0833)" stroke="#25D46F" stroke-width="4.24829"/>
</g>
<g opacity="0.3" clip-path="url(#clip19_58_22643)">
<rect x="1336.81" y="43.7696" width="42.4459" height="42.4459" rx="8.49657" transform="rotate(39.2248 1336.81 43.7696)" stroke="#25D46F" stroke-width="4.24829"/>
</g>
<g opacity="0.3" clip-path="url(#clip20_58_22643)">
<rect x="1440.78" y="128.635" width="42.4459" height="42.4459" rx="8.49657" transform="rotate(39.2248 1440.78 128.635)" stroke="#25D46F" stroke-width="4.24829"/>
</g>
<g opacity="0.3" clip-path="url(#clip21_58_22643)">
<rect x="1285.23" y="-0.42672" width="42.4459" height="42.4459" rx="8.49657" transform="rotate(39.2248 1285.23 -0.42672)" stroke="#25D46F" stroke-width="4.24829"/>
</g>
<g opacity="0.3" clip-path="url(#clip22_58_22643)">
<rect x="1389.19" y="84.4388" width="42.4459" height="42.4459" rx="8.49657" transform="rotate(39.2248 1389.19 84.4388)" stroke="#25D46F" stroke-width="4.24829"/>
</g>
<g opacity="0.3" clip-path="url(#clip23_58_22643)">
<rect x="-2.98875" y="0.302277" width="42.4459" height="42.4459" rx="8.49657" transform="matrix(-0.77467 -0.632365 -0.632365 0.77467 1373.45 29.4537)" stroke="#F1B4EF" stroke-width="4.24829"/>
</g>
<g opacity="0.3" clip-path="url(#clip24_58_22643)">
<rect x="-2.98875" y="0.302277" width="42.4459" height="42.4459" rx="8.49657" transform="matrix(-0.77467 -0.632365 -0.632365 0.77467 1425.83 70.1229)" stroke="#F1B4EF" stroke-width="4.24829"/>
</g>
<g opacity="0.3" clip-path="url(#clip25_58_22643)">
<rect x="-2.98875" y="0.302277" width="42.4459" height="42.4459" rx="8.49657" transform="matrix(-0.77467 -0.632365 -0.632365 0.77467 1422.48 25.6443)" stroke="#F1B4EF" stroke-width="4.24829"/>
</g>
<g opacity="0.3" clip-path="url(#clip26_58_22643)">
<rect x="-2.98875" y="0.302277" width="42.4459" height="42.4459" rx="8.49657" transform="matrix(-0.77467 -0.632365 -0.632365 0.77467 1328.18 36.3306)" stroke="#F1B4EF" stroke-width="4.24829"/>
</g>
<g opacity="0.3" clip-path="url(#clip27_58_22643)">
<rect x="-2.98875" y="0.302277" width="42.4459" height="42.4459" rx="8.49657" transform="matrix(-0.77467 -0.632365 -0.632365 0.77467 1432.14 121.196)" stroke="#F1B4EF" stroke-width="4.24829"/>
</g>
<g opacity="0.3" clip-path="url(#clip28_58_22643)">
<rect x="-2.98875" y="0.302277" width="42.4459" height="42.4459" rx="8.49657" transform="matrix(-0.77467 -0.632365 -0.632365 0.77467 1276.59 -7.86581)" stroke="#F1B4EF" stroke-width="4.24829"/>
</g>
<g opacity="0.3" clip-path="url(#clip29_58_22643)">
<rect x="-2.98875" y="0.302277" width="42.4459" height="42.4459" rx="8.49657" transform="matrix(-0.77467 -0.632365 -0.632365 0.77467 1380.56 76.9997)" stroke="#F1B4EF" stroke-width="4.24829"/>
</g>
</g>
</g>
<g clip-path="url(#clip30_58_22643)">
<mask id="mask1_58_22643" style="mask-type:alpha" maskUnits="userSpaceOnUse" x="-132" y="-83" width="337" height="298">
<rect width="364.088" height="86.6618" transform="translate(-131.85 147.669) rotate(-39.2248)" fill="url(#paint1_linear_58_22643)"/>
</mask>
<g mask="url(#mask1_58_22643)">
<g opacity="0.3" clip-path="url(#clip31_58_22643)">
<rect x="0.302277" y="-2.98875" width="42.4459" height="42.4459" rx="8.49657" transform="matrix(0.77467 -0.632365 -0.632365 -0.77467 57.4482 23.5053)" stroke="#25D46F" stroke-width="4.24829"/>
</g>
<g opacity="0.3" clip-path="url(#clip32_58_22643)">
<rect x="0.302277" y="-2.98875" width="42.4459" height="42.4459" rx="8.49657" transform="matrix(0.77467 -0.632365 -0.632365 -0.77467 5.06973 64.1747)" stroke="#25D46F" stroke-width="4.24829"/>
</g>
<g opacity="0.3" clip-path="url(#clip33_58_22643)">
<rect x="0.302277" y="-2.98875" width="42.4459" height="42.4459" rx="8.49657" transform="matrix(0.77467 -0.632365 -0.632365 -0.77467 9.4418 20.9488)" stroke="#25D46F" stroke-width="4.24829"/>
</g>
<g opacity="0.3" clip-path="url(#clip34_58_22643)">
<rect x="0.302277" y="-2.98875" width="42.4459" height="42.4459" rx="8.49657" transform="matrix(0.77467 -0.632365 -0.632365 -0.77467 102.719 30.3826)" stroke="#25D46F" stroke-width="4.24829"/>
</g>
<g opacity="0.3" clip-path="url(#clip35_58_22643)">
<rect x="0.302277" y="-2.98875" width="42.4459" height="42.4459" rx="8.49657" transform="matrix(0.77467 -0.632365 -0.632365 -0.77467 -1.24447 115.248)" stroke="#25D46F" stroke-width="4.24829"/>
</g>
<g opacity="0.3" clip-path="url(#clip36_58_22643)">
<rect x="0.302277" y="-2.98875" width="42.4459" height="42.4459" rx="8.49657" transform="matrix(0.77467 -0.632365 -0.632365 -0.77467 50.341 71.0515)" stroke="#25D46F" stroke-width="4.24829"/>
</g>
<g opacity="0.3" clip-path="url(#clip37_58_22643)">
<rect x="53.0611" y="30.9447" width="42.4459" height="42.4459" rx="8.49657" transform="rotate(140.775 53.0611 30.9447)" stroke="#F1B4EF" stroke-width="4.24829"/>
</g>
<g opacity="0.3" clip-path="url(#clip38_58_22643)">
<rect x="0.683373" y="71.6137" width="42.4459" height="42.4459" rx="8.49657" transform="rotate(140.775 0.683373 71.6137)" stroke="#F1B4EF" stroke-width="4.24829"/>
</g>
<g opacity="0.3" clip-path="url(#clip39_58_22643)">
<rect x="5.05496" y="28.3878" width="42.4459" height="42.4459" rx="8.49657" transform="rotate(140.775 5.05496 28.3878)" stroke="#F1B4EF" stroke-width="4.24829"/>
</g>
<g opacity="0.3" clip-path="url(#clip40_58_22643)">
<rect x="98.3318" y="37.8216" width="42.4459" height="42.4459" rx="8.49657" transform="rotate(140.775 98.3318 37.8216)" stroke="#F1B4EF" stroke-width="4.24829"/>
</g>
<g opacity="0.3" clip-path="url(#clip41_58_22643)">
<rect x="149.918" y="-6.37497" width="42.4459" height="42.4459" rx="8.49657" transform="rotate(140.775 149.918 -6.37497)" stroke="#F1B4EF" stroke-width="4.24829"/>
</g>
<g opacity="0.3" clip-path="url(#clip42_58_22643)">
<rect x="45.9541" y="78.4908" width="42.4459" height="42.4459" rx="8.49657" transform="rotate(140.775 45.9541 78.4908)" stroke="#F1B4EF" stroke-width="4.24829"/>
</g>
<g opacity="0.3" clip-path="url(#clip43_58_22643)">
<rect x="-0.302277" y="2.98875" width="42.4459" height="42.4459" rx="8.49657" transform="matrix(-0.77467 0.632365 0.632365 0.77467 55.7923 34.7685)" stroke="#25D46F" stroke-width="4.24829"/>
</g>
<g opacity="0.3" clip-path="url(#clip44_58_22643)">
<rect x="-0.302277" y="2.98875" width="42.4459" height="42.4459" rx="8.49657" transform="matrix(-0.77467 0.632365 0.632365 0.77467 107.378 -9.42794)" stroke="#25D46F" stroke-width="4.24829"/>
</g>
<g opacity="0.3" clip-path="url(#clip45_58_22643)">
<rect x="-0.302277" y="2.98875" width="42.4459" height="42.4459" rx="8.49657" transform="matrix(-0.77467 0.632365 0.632365 0.77467 3.41464 75.4377)" stroke="#25D46F" stroke-width="4.24829"/>
</g>
<g opacity="0.3" clip-path="url(#clip46_58_22643)">
<rect x="-0.302277" y="2.98875" width="42.4459" height="42.4459" rx="8.49657" transform="matrix(-0.77467 0.632365 0.632365 0.77467 59.1417 -9.70998)" stroke="#25D46F" stroke-width="4.24829"/>
</g>
<g opacity="0.3" clip-path="url(#clip47_58_22643)">
<rect x="-0.302277" y="2.98875" width="42.4459" height="42.4459" rx="8.49657" transform="matrix(-0.77467 0.632365 0.632365 0.77467 6.76376 30.9591)" stroke="#25D46F" stroke-width="4.24829"/>
</g>
<g opacity="0.3" clip-path="url(#clip48_58_22643)">
<rect x="-0.302277" y="2.98875" width="42.4459" height="42.4459" rx="8.49657" transform="matrix(-0.77467 0.632365 0.632365 0.77467 101.063 41.6455)" stroke="#25D46F" stroke-width="4.24829"/>
</g>
<g opacity="0.3" clip-path="url(#clip49_58_22643)">
<rect x="-0.302277" y="2.98875" width="42.4459" height="42.4459" rx="8.49657" transform="matrix(-0.77467 0.632365 0.632365 0.77467 -2.90005 126.511)" stroke="#25D46F" stroke-width="4.24829"/>
</g>
<g opacity="0.3" clip-path="url(#clip50_58_22643)">
<rect x="-0.302277" y="2.98875" width="42.4459" height="42.4459" rx="8.49657" transform="matrix(-0.77467 0.632365 0.632365 0.77467 152.649 -2.55086)" stroke="#25D46F" stroke-width="4.24829"/>
</g>
<g opacity="0.3" clip-path="url(#clip51_58_22643)">
<rect x="-0.302277" y="2.98875" width="42.4459" height="42.4459" rx="8.49657" transform="matrix(-0.77467 0.632365 0.632365 0.77467 48.6854 82.3146)" stroke="#25D46F" stroke-width="4.24829"/>
</g>
<g opacity="0.3" clip-path="url(#clip52_58_22643)">
<rect x="64.4275" y="31.5779" width="42.4459" height="42.4459" rx="8.49657" transform="rotate(-39.2248 64.4275 31.5779)" stroke="#F1B4EF" stroke-width="4.24829"/>
</g>
<g opacity="0.3" clip-path="url(#clip53_58_22643)">
<rect x="12.0493" y="72.247" width="42.4459" height="42.4459" rx="8.49657" transform="rotate(-39.2248 12.0493 72.247)" stroke="#F1B4EF" stroke-width="4.24829"/>
</g>
<g opacity="0.3" clip-path="url(#clip54_58_22643)">
<rect x="15.3987" y="27.7684" width="42.4459" height="42.4459" rx="8.49657" transform="rotate(-39.2248 15.3987 27.7684)" stroke="#F1B4EF" stroke-width="4.24829"/>
</g>
<g opacity="0.3" clip-path="url(#clip55_58_22643)">
<rect x="109.698" y="38.4547" width="42.4459" height="42.4459" rx="8.49657" transform="rotate(-39.2248 109.698 38.4547)" stroke="#F1B4EF" stroke-width="4.24829"/>
</g>
<g opacity="0.3" clip-path="url(#clip56_58_22643)">
<rect x="5.73484" y="123.321" width="42.4459" height="42.4459" rx="8.49657" transform="rotate(-39.2248 5.73484 123.321)" stroke="#F1B4EF" stroke-width="4.24829"/>
</g>
<g opacity="0.3" clip-path="url(#clip57_58_22643)">
<rect x="161.284" y="-5.74167" width="42.4459" height="42.4459" rx="8.49657" transform="rotate(-39.2248 161.284 -5.74167)" stroke="#F1B4EF" stroke-width="4.24829"/>
</g>
<g opacity="0.3" clip-path="url(#clip58_58_22643)">
<rect x="57.3203" y="79.1238" width="42.4459" height="42.4459" rx="8.49657" transform="rotate(-39.2248 57.3203 79.1238)" stroke="#F1B4EF" stroke-width="4.24829"/>
</g>
</g>
</g>
<g clip-path="url(#clip59_58_22643)">
<path d="M1055.42 368.923L937.589 1094.12C932.917 1122.84 959.175 1146.98 987.396 1139.87L1755.61 947.191C1787.88 939.092 1797.16 897.665 1771.4 876.578L1121.05 344.067C1096.91 324.288 1060.44 338.117 1055.42 368.892V368.923Z" fill="#CFA6CE"/>
<path d="M163.086 354.526L1491.01 552.604C1522.69 557.339 1548.03 581.367 1554.39 612.753L1698.91 1325.84C1708.45 1372.88 1672.61 1416.9 1624.62 1417.09L-319.23 1424.87C-376.276 1425.09 -413.293 1364.78 -387.25 1314.01L84.1238 395.063C99.0332 366.012 130.804 349.695 163.086 354.526Z" fill="#24633F"/>
</g>
</g>
<defs>
<linearGradient id="paint0_linear_58_22643" x1="182.044" y1="0" x2="182.044" y2="86.6618" gradientUnits="userSpaceOnUse">
<stop/>
<stop offset="1" stop-opacity="0"/>
</linearGradient>
<linearGradient id="paint1_linear_58_22643" x1="182.044" y1="0" x2="182.044" y2="86.6618" gradientUnits="userSpaceOnUse">
<stop/>
<stop offset="1" stop-opacity="0"/>
</linearGradient>
<clipPath id="clip0_58_22643">
<rect width="1440" height="834" fill="white"/>
</clipPath>
<clipPath id="clip1_58_22643">
<rect width="364.088" height="108.463" fill="white" transform="matrix(-0.77467 -0.632365 -0.632365 0.77467 1585.64 130.78)"/>
</clipPath>
<clipPath id="clip2_58_22643">
<rect width="13.144" height="12.9353" fill="white" transform="translate(1381.11 29.0522) rotate(-140.775)"/>
</clipPath>
<clipPath id="clip3_58_22643">
<rect width="13.144" height="12.9353" fill="white" transform="translate(1433.48 69.7211) rotate(-140.775)"/>
</clipPath>
<clipPath id="clip4_58_22643">
<rect width="13.144" height="12.9353" fill="white" transform="translate(1429.11 26.4952) rotate(-140.775)"/>
</clipPath>
<clipPath id="clip5_58_22643">
<rect width="13.144" height="12.9353" fill="white" transform="translate(1335.84 35.9291) rotate(-140.775)"/>
</clipPath>
<clipPath id="clip6_58_22643">
<rect width="13.144" height="12.9353" fill="white" transform="translate(1439.8 120.795) rotate(-140.775)"/>
</clipPath>
<clipPath id="clip7_58_22643">
<rect width="13.144" height="12.9353" fill="white" transform="translate(1388.21 76.5981) rotate(-140.775)"/>
</clipPath>
<clipPath id="clip8_58_22643">
<rect width="13.144" height="12.9353" fill="white" transform="matrix(0.77467 0.632365 0.632365 -0.77467 1383.45 30.9653)"/>
</clipPath>
<clipPath id="clip9_58_22643">
<rect width="13.144" height="12.9353" fill="white" transform="matrix(0.77467 0.632365 0.632365 -0.77467 1435.83 71.6342)"/>
</clipPath>
<clipPath id="clip10_58_22643">
<rect width="13.144" height="12.9353" fill="white" transform="matrix(0.77467 0.632365 0.632365 -0.77467 1431.46 28.4083)"/>
</clipPath>
<clipPath id="clip11_58_22643">
<rect width="13.144" height="12.9353" fill="white" transform="matrix(0.77467 0.632365 0.632365 -0.77467 1338.18 37.8422)"/>
</clipPath>
<clipPath id="clip12_58_22643">
<rect width="13.144" height="12.9353" fill="white" transform="matrix(0.77467 0.632365 0.632365 -0.77467 1286.59 -6.35443)"/>
</clipPath>
<clipPath id="clip13_58_22643">
<rect width="13.144" height="12.9353" fill="white" transform="matrix(0.77467 0.632365 0.632365 -0.77467 1390.56 78.511)"/>
</clipPath>
<clipPath id="clip14_58_22643">
<rect width="13.144" height="12.9353" fill="white" transform="translate(1381.4 33.4703) rotate(39.2248)"/>
</clipPath>
<clipPath id="clip15_58_22643">
<rect width="13.144" height="12.9353" fill="white" transform="translate(1329.82 -10.7264) rotate(39.2248)"/>
</clipPath>
<clipPath id="clip16_58_22643">
<rect width="13.144" height="12.9353" fill="white" transform="translate(1433.78 74.1393) rotate(39.2248)"/>
</clipPath>
<clipPath id="clip17_58_22643">
<rect width="13.144" height="12.9353" fill="white" transform="translate(1378.06 -11.0081) rotate(39.2248)"/>
</clipPath>
<clipPath id="clip18_58_22643">
<rect width="13.144" height="12.9353" fill="white" transform="translate(1430.43 29.6608) rotate(39.2248)"/>
</clipPath>
<clipPath id="clip19_58_22643">
<rect width="13.144" height="12.9353" fill="white" transform="translate(1336.13 40.3473) rotate(39.2248)"/>
</clipPath>
<clipPath id="clip20_58_22643">
<rect width="13.144" height="12.9353" fill="white" transform="translate(1440.1 125.213) rotate(39.2248)"/>
</clipPath>
<clipPath id="clip21_58_22643">
<rect width="13.144" height="12.9353" fill="white" transform="translate(1284.55 -3.84918) rotate(39.2248)"/>
</clipPath>
<clipPath id="clip22_58_22643">
<rect width="13.144" height="12.9353" fill="white" transform="translate(1388.51 81.0162) rotate(39.2248)"/>
</clipPath>
<clipPath id="clip23_58_22643">
<rect width="13.144" height="12.9353" fill="white" transform="matrix(-0.77467 -0.632365 -0.632365 0.77467 1379.06 31.5574)"/>
</clipPath>
<clipPath id="clip24_58_22643">
<rect width="13.144" height="12.9353" fill="white" transform="matrix(-0.77467 -0.632365 -0.632365 0.77467 1431.44 72.2264)"/>
</clipPath>
<clipPath id="clip25_58_22643">
<rect width="13.144" height="12.9353" fill="white" transform="matrix(-0.77467 -0.632365 -0.632365 0.77467 1428.09 27.748)"/>
</clipPath>
<clipPath id="clip26_58_22643">
<rect width="13.144" height="12.9353" fill="white" transform="matrix(-0.77467 -0.632365 -0.632365 0.77467 1333.79 38.4344)"/>
</clipPath>
<clipPath id="clip27_58_22643">
<rect width="13.144" height="12.9353" fill="white" transform="matrix(-0.77467 -0.632365 -0.632365 0.77467 1437.75 123.3)"/>
</clipPath>
<clipPath id="clip28_58_22643">
<rect width="13.144" height="12.9353" fill="white" transform="matrix(-0.77467 -0.632365 -0.632365 0.77467 1282.21 -5.76227)"/>
</clipPath>
<clipPath id="clip29_58_22643">
<rect width="13.144" height="12.9353" fill="white" transform="matrix(-0.77467 -0.632365 -0.632365 0.77467 1386.17 79.1034)"/>
</clipPath>
<clipPath id="clip30_58_22643">
<rect width="364.088" height="108.463" fill="white" transform="translate(-145.637 130.78) rotate(-39.2248)"/>
</clipPath>
<clipPath id="clip31_58_22643">
<rect width="13.144" height="12.9353" fill="white" transform="matrix(0.77467 -0.632365 -0.632365 -0.77467 58.8936 29.0522)"/>
</clipPath>
<clipPath id="clip32_58_22643">
<rect width="13.144" height="12.9353" fill="white" transform="matrix(0.77467 -0.632365 -0.632365 -0.77467 6.51562 69.7211)"/>
</clipPath>
<clipPath id="clip33_58_22643">
<rect width="13.144" height="12.9353" fill="white" transform="matrix(0.77467 -0.632365 -0.632365 -0.77467 10.8875 26.4952)"/>
</clipPath>
<clipPath id="clip34_58_22643">
<rect width="13.144" height="12.9353" fill="white" transform="matrix(0.77467 -0.632365 -0.632365 -0.77467 104.165 35.9291)"/>
</clipPath>
<clipPath id="clip35_58_22643">
<rect width="13.144" height="12.9353" fill="white" transform="matrix(0.77467 -0.632365 -0.632365 -0.77467 0.200928 120.795)"/>
</clipPath>
<clipPath id="clip36_58_22643">
<rect width="13.144" height="12.9353" fill="white" transform="matrix(0.77467 -0.632365 -0.632365 -0.77467 51.7866 76.5981)"/>
</clipPath>
<clipPath id="clip37_58_22643">
<rect width="13.144" height="12.9353" fill="white" transform="translate(56.55 30.9653) rotate(140.775)"/>
</clipPath>
<clipPath id="clip38_58_22643">
<rect width="13.144" height="12.9353" fill="white" transform="translate(4.17236 71.6342) rotate(140.775)"/>
</clipPath>
<clipPath id="clip39_58_22643">
<rect width="13.144" height="12.9353" fill="white" transform="translate(8.54395 28.4083) rotate(140.775)"/>
</clipPath>
<clipPath id="clip40_58_22643">
<rect width="13.144" height="12.9353" fill="white" transform="translate(101.821 37.8422) rotate(140.775)"/>
</clipPath>
<clipPath id="clip41_58_22643">
<rect width="13.144" height="12.9353" fill="white" transform="translate(153.406 -6.35443) rotate(140.775)"/>
</clipPath>
<clipPath id="clip42_58_22643">
<rect width="13.144" height="12.9353" fill="white" transform="translate(49.4431 78.511) rotate(140.775)"/>
</clipPath>
<clipPath id="clip43_58_22643">
<rect width="13.144" height="12.9353" fill="white" transform="matrix(-0.77467 0.632365 0.632365 0.77467 58.595 33.4703)"/>
</clipPath>
<clipPath id="clip44_58_22643">
<rect width="13.144" height="12.9353" fill="white" transform="matrix(-0.77467 0.632365 0.632365 0.77467 110.181 -10.7264)"/>
</clipPath>
<clipPath id="clip45_58_22643">
<rect width="13.144" height="12.9353" fill="white" transform="matrix(-0.77467 0.632365 0.632365 0.77467 6.21729 74.1393)"/>
</clipPath>
<clipPath id="clip46_58_22643">
<rect width="13.144" height="12.9353" fill="white" transform="matrix(-0.77467 0.632365 0.632365 0.77467 61.9443 -11.0081)"/>
</clipPath>
<clipPath id="clip47_58_22643">
<rect width="13.144" height="12.9353" fill="white" transform="matrix(-0.77467 0.632365 0.632365 0.77467 9.56641 29.6608)"/>
</clipPath>
<clipPath id="clip48_58_22643">
<rect width="13.144" height="12.9353" fill="white" transform="matrix(-0.77467 0.632365 0.632365 0.77467 103.866 40.3473)"/>
</clipPath>
<clipPath id="clip49_58_22643">
<rect width="13.144" height="12.9353" fill="white" transform="matrix(-0.77467 0.632365 0.632365 0.77467 -0.0974121 125.213)"/>
</clipPath>
<clipPath id="clip50_58_22643">
<rect width="13.144" height="12.9353" fill="white" transform="matrix(-0.77467 0.632365 0.632365 0.77467 155.451 -3.84918)"/>
</clipPath>
<clipPath id="clip51_58_22643">
<rect width="13.144" height="12.9353" fill="white" transform="matrix(-0.77467 0.632365 0.632365 0.77467 51.488 81.0162)"/>
</clipPath>
<clipPath id="clip52_58_22643">
<rect width="13.144" height="12.9353" fill="white" transform="translate(60.9385 31.5574) rotate(-39.2248)"/>
</clipPath>
<clipPath id="clip53_58_22643">
<rect width="13.144" height="12.9353" fill="white" transform="translate(8.56055 72.2264) rotate(-39.2248)"/>
</clipPath>
<clipPath id="clip54_58_22643">
<rect width="13.144" height="12.9353" fill="white" transform="translate(11.9097 27.748) rotate(-39.2248)"/>
</clipPath>
<clipPath id="clip55_58_22643">
<rect width="13.144" height="12.9353" fill="white" transform="translate(106.209 38.4344) rotate(-39.2248)"/>
</clipPath>
<clipPath id="clip56_58_22643">
<rect width="13.144" height="12.9353" fill="white" transform="translate(2.24585 123.3) rotate(-39.2248)"/>
</clipPath>
<clipPath id="clip57_58_22643">
<rect width="13.144" height="12.9353" fill="white" transform="translate(157.795 -5.76227) rotate(-39.2248)"/>
</clipPath>
<clipPath id="clip58_58_22643">
<rect width="13.144" height="12.9353" fill="white" transform="translate(53.8313 79.1034) rotate(-39.2248)"/>
</clipPath>
<clipPath id="clip59_58_22643">
<rect width="1440" height="553" fill="white" transform="translate(0 335)"/>
</clipPath>
</defs>
</svg>
