<svg width="1448" height="2924" viewBox="0 0 1448 2924" fill="none" xmlns="http://www.w3.org/2000/svg">
<g clip-path="url(#clip0_57_17388)" filter="url(#filter0_d_57_17388)">
<rect width="1440" height="2916" transform="translate(4)" fill="#DEE8E2"/>
<g clip-path="url(#clip1_57_17388)">
<mask id="mask0_57_17388" style="mask-type:alpha" maskUnits="userSpaceOnUse" x="1239" y="-99" width="337" height="298">
<rect width="364.088" height="86.6618" transform="matrix(-0.77467 -0.632365 -0.632365 0.77467 1575.85 131.493)" fill="url(#paint0_linear_57_17388)"/>
</mask>
<g mask="url(#mask0_57_17388)">
<g opacity="0.3" clip-path="url(#clip2_57_17388)">
<rect x="1384.43" y="9.45315" width="42.4459" height="42.4459" rx="8.49657" transform="rotate(-140.775 1384.43 9.45315)" stroke="#25D46F" stroke-width="4.24829"/>
</g>
<g opacity="0.3" clip-path="url(#clip3_57_17388)">
<rect x="1436.81" y="50.1226" width="42.4459" height="42.4459" rx="8.49657" transform="rotate(-140.775 1436.81 50.1226)" stroke="#25D46F" stroke-width="4.24829"/>
</g>
<g opacity="0.3" clip-path="url(#clip4_57_17388)">
<rect x="1432.43" y="6.89651" width="42.4459" height="42.4459" rx="8.49657" transform="rotate(-140.775 1432.43 6.89651)" stroke="#25D46F" stroke-width="4.24829"/>
</g>
<g opacity="0.3" clip-path="url(#clip5_57_17388)">
<rect x="1339.16" y="16.3306" width="42.4459" height="42.4459" rx="8.49657" transform="rotate(-140.775 1339.16 16.3306)" stroke="#25D46F" stroke-width="4.24829"/>
</g>
<g opacity="0.3" clip-path="url(#clip6_57_17388)">
<rect x="1443.12" y="101.196" width="42.4459" height="42.4459" rx="8.49657" transform="rotate(-140.775 1443.12 101.196)" stroke="#25D46F" stroke-width="4.24829"/>
</g>
<g opacity="0.3" clip-path="url(#clip7_57_17388)">
<rect x="1391.54" y="56.9995" width="42.4459" height="42.4459" rx="8.49657" transform="rotate(-140.775 1391.54 56.9995)" stroke="#25D46F" stroke-width="4.24829"/>
</g>
<g opacity="0.3" clip-path="url(#clip8_57_17388)">
<rect x="2.98875" y="-0.302277" width="42.4459" height="42.4459" rx="8.49657" transform="matrix(0.77467 0.632365 0.632365 -0.77467 1388.81 12.6444)" stroke="#F1B4EF" stroke-width="4.24829"/>
</g>
<g opacity="0.3" clip-path="url(#clip9_57_17388)">
<rect x="2.98875" y="-0.302277" width="42.4459" height="42.4459" rx="8.49657" transform="matrix(0.77467 0.632365 0.632365 -0.77467 1441.19 53.3133)" stroke="#F1B4EF" stroke-width="4.24829"/>
</g>
<g opacity="0.3" clip-path="url(#clip10_57_17388)">
<rect x="2.98875" y="-0.302277" width="42.4459" height="42.4459" rx="8.49657" transform="matrix(0.77467 0.632365 0.632365 -0.77467 1436.82 10.0873)" stroke="#F1B4EF" stroke-width="4.24829"/>
</g>
<g opacity="0.3" clip-path="url(#clip11_57_17388)">
<rect x="2.98875" y="-0.302277" width="42.4459" height="42.4459" rx="8.49657" transform="matrix(0.77467 0.632365 0.632365 -0.77467 1343.54 19.5213)" stroke="#F1B4EF" stroke-width="4.24829"/>
</g>
<g opacity="0.3" clip-path="url(#clip12_57_17388)">
<rect x="2.98875" y="-0.302277" width="42.4459" height="42.4459" rx="8.49657" transform="matrix(0.77467 0.632365 0.632365 -0.77467 1395.92 60.1908)" stroke="#F1B4EF" stroke-width="4.24829"/>
</g>
<g opacity="0.3" clip-path="url(#clip13_57_17388)">
<rect x="1386.08" y="20.7163" width="42.4459" height="42.4459" rx="8.49657" transform="rotate(39.2248 1386.08 20.7163)" stroke="#25D46F" stroke-width="4.24829"/>
</g>
<g opacity="0.3" clip-path="url(#clip14_57_17388)">
<rect x="1438.46" y="61.3852" width="42.4459" height="42.4459" rx="8.49657" transform="rotate(39.2248 1438.46 61.3852)" stroke="#25D46F" stroke-width="4.24829"/>
</g>
<g opacity="0.3" clip-path="url(#clip15_57_17388)">
<rect x="1435.11" y="16.9067" width="42.4459" height="42.4459" rx="8.49657" transform="rotate(39.2248 1435.11 16.9067)" stroke="#25D46F" stroke-width="4.24829"/>
</g>
<g opacity="0.3" clip-path="url(#clip16_57_17388)">
<rect x="1340.81" y="27.5932" width="42.4459" height="42.4459" rx="8.49657" transform="rotate(39.2248 1340.81 27.5932)" stroke="#25D46F" stroke-width="4.24829"/>
</g>
<g opacity="0.3" clip-path="url(#clip17_57_17388)">
<rect x="1444.78" y="112.459" width="42.4459" height="42.4459" rx="8.49657" transform="rotate(39.2248 1444.78 112.459)" stroke="#25D46F" stroke-width="4.24829"/>
</g>
<g opacity="0.3" clip-path="url(#clip18_57_17388)">
<rect x="1393.19" y="68.2622" width="42.4459" height="42.4459" rx="8.49657" transform="rotate(39.2248 1393.19 68.2622)" stroke="#25D46F" stroke-width="4.24829"/>
</g>
<g opacity="0.3" clip-path="url(#clip19_57_17388)">
<rect x="-2.98875" y="0.302277" width="42.4459" height="42.4459" rx="8.49657" transform="matrix(-0.77467 -0.632365 -0.632365 0.77467 1377.45 13.2777)" stroke="#F1B4EF" stroke-width="4.24829"/>
</g>
<g opacity="0.3" clip-path="url(#clip20_57_17388)">
<rect x="-2.98875" y="0.302277" width="42.4459" height="42.4459" rx="8.49657" transform="matrix(-0.77467 -0.632365 -0.632365 0.77467 1429.83 53.9467)" stroke="#F1B4EF" stroke-width="4.24829"/>
</g>
<g opacity="0.3" clip-path="url(#clip21_57_17388)">
<rect x="-2.98875" y="0.302277" width="42.4459" height="42.4459" rx="8.49657" transform="matrix(-0.77467 -0.632365 -0.632365 0.77467 1426.48 9.46817)" stroke="#F1B4EF" stroke-width="4.24829"/>
</g>
<g opacity="0.3" clip-path="url(#clip22_57_17388)">
<rect x="-2.98875" y="0.302277" width="42.4459" height="42.4459" rx="8.49657" transform="matrix(-0.77467 -0.632365 -0.632365 0.77467 1332.18 20.1547)" stroke="#F1B4EF" stroke-width="4.24829"/>
</g>
<g opacity="0.3" clip-path="url(#clip23_57_17388)">
<rect x="-2.98875" y="0.302277" width="42.4459" height="42.4459" rx="8.49657" transform="matrix(-0.77467 -0.632365 -0.632365 0.77467 1436.14 105.02)" stroke="#F1B4EF" stroke-width="4.24829"/>
</g>
<g opacity="0.3" clip-path="url(#clip24_57_17388)">
<rect x="-2.98875" y="0.302277" width="42.4459" height="42.4459" rx="8.49657" transform="matrix(-0.77467 -0.632365 -0.632365 0.77467 1384.56 60.8236)" stroke="#F1B4EF" stroke-width="4.24829"/>
</g>
</g>
</g>
<path d="M-302.241 507.709C-332.13 478.508 -309.813 427.862 -268.093 430.216L-144.718 437.177C-132.614 437.86 -120.742 433.653 -111.768 425.502L-17.7944 340.147C11.2059 313.806 57.6997 334.294 57.8288 373.471L58.247 500.421C58.287 512.545 63.1936 524.145 71.8655 532.617L160.254 618.973C190.143 648.175 167.825 698.82 126.105 696.466L2.73063 689.505C-9.37388 688.822 -21.2456 693.029 -30.2201 701.18L-124.193 786.535C-153.194 812.876 -199.687 792.388 -199.817 753.211L-200.235 626.261C-200.275 614.137 -205.181 602.537 -213.853 594.065L-302.241 507.709Z" fill="#24633F"/>
<path d="M-302.241 507.709C-332.13 478.508 -309.813 427.862 -268.093 430.216L-144.718 437.177C-132.614 437.86 -120.742 433.653 -111.768 425.502L-17.7944 340.147C11.2059 313.806 57.6997 334.294 57.8288 373.471L58.247 500.421C58.287 512.545 63.1936 524.145 71.8655 532.617L160.254 618.973C190.143 648.175 167.825 698.82 126.105 696.466L2.73063 689.505C-9.37388 688.822 -21.2456 693.029 -30.2201 701.18L-124.193 786.535C-153.194 812.876 -199.687 792.388 -199.817 753.211L-200.235 626.261C-200.275 614.137 -205.181 602.537 -213.853 594.065L-302.241 507.709Z" fill="#24633F"/>
</g>
<defs>
<filter id="filter0_d_57_17388" x="0" y="0" width="1448" height="2924" filterUnits="userSpaceOnUse" color-interpolation-filters="sRGB">
<feFlood flood-opacity="0" result="BackgroundImageFix"/>
<feColorMatrix in="SourceAlpha" type="matrix" values="0 0 0 0 0 0 0 0 0 0 0 0 0 0 0 0 0 0 127 0" result="hardAlpha"/>
<feOffset dy="4"/>
<feGaussianBlur stdDeviation="2"/>
<feComposite in2="hardAlpha" operator="out"/>
<feColorMatrix type="matrix" values="0 0 0 0 0 0 0 0 0 0 0 0 0 0 0 0 0 0 0.25 0"/>
<feBlend mode="normal" in2="BackgroundImageFix" result="effect1_dropShadow_57_17388"/>
<feBlend mode="normal" in="SourceGraphic" in2="effect1_dropShadow_57_17388" result="shape"/>
</filter>
<linearGradient id="paint0_linear_57_17388" x1="182.044" y1="0" x2="182.044" y2="86.6618" gradientUnits="userSpaceOnUse">
<stop/>
<stop offset="1" stop-opacity="0"/>
</linearGradient>
<clipPath id="clip0_57_17388">
<rect width="1440" height="2916" fill="white" transform="translate(4)"/>
</clipPath>
<clipPath id="clip1_57_17388">
<rect width="364.088" height="108.463" fill="white" transform="matrix(-0.77467 -0.632365 -0.632365 0.77467 1589.64 114.604)"/>
</clipPath>
<clipPath id="clip2_57_17388">
<rect width="13.144" height="12.9353" fill="white" transform="translate(1385.11 12.876) rotate(-140.775)"/>
</clipPath>
<clipPath id="clip3_57_17388">
<rect width="13.144" height="12.9353" fill="white" transform="translate(1437.48 53.5449) rotate(-140.775)"/>
</clipPath>
<clipPath id="clip4_57_17388">
<rect width="13.144" height="12.9353" fill="white" transform="translate(1433.11 10.3188) rotate(-140.775)"/>
</clipPath>
<clipPath id="clip5_57_17388">
<rect width="13.144" height="12.9353" fill="white" transform="translate(1339.84 19.7529) rotate(-140.775)"/>
</clipPath>
<clipPath id="clip6_57_17388">
<rect width="13.144" height="12.9353" fill="white" transform="translate(1443.8 104.619) rotate(-140.775)"/>
</clipPath>
<clipPath id="clip7_57_17388">
<rect width="13.144" height="12.9353" fill="white" transform="translate(1392.21 60.4219) rotate(-140.775)"/>
</clipPath>
<clipPath id="clip8_57_17388">
<rect width="13.144" height="12.9353" fill="white" transform="matrix(0.77467 0.632365 0.632365 -0.77467 1387.45 14.7891)"/>
</clipPath>
<clipPath id="clip9_57_17388">
<rect width="13.144" height="12.9353" fill="white" transform="matrix(0.77467 0.632365 0.632365 -0.77467 1439.83 55.458)"/>
</clipPath>
<clipPath id="clip10_57_17388">
<rect width="13.144" height="12.9353" fill="white" transform="matrix(0.77467 0.632365 0.632365 -0.77467 1435.46 12.2319)"/>
</clipPath>
<clipPath id="clip11_57_17388">
<rect width="13.144" height="12.9353" fill="white" transform="matrix(0.77467 0.632365 0.632365 -0.77467 1342.18 21.666)"/>
</clipPath>
<clipPath id="clip12_57_17388">
<rect width="13.144" height="12.9353" fill="white" transform="matrix(0.77467 0.632365 0.632365 -0.77467 1394.56 62.335)"/>
</clipPath>
<clipPath id="clip13_57_17388">
<rect width="13.144" height="12.9353" fill="white" transform="translate(1385.4 17.2939) rotate(39.2248)"/>
</clipPath>
<clipPath id="clip14_57_17388">
<rect width="13.144" height="12.9353" fill="white" transform="translate(1437.78 57.9629) rotate(39.2248)"/>
</clipPath>
<clipPath id="clip15_57_17388">
<rect width="13.144" height="12.9353" fill="white" transform="translate(1434.43 13.4844) rotate(39.2248)"/>
</clipPath>
<clipPath id="clip16_57_17388">
<rect width="13.144" height="12.9353" fill="white" transform="translate(1340.13 24.1709) rotate(39.2248)"/>
</clipPath>
<clipPath id="clip17_57_17388">
<rect width="13.144" height="12.9353" fill="white" transform="translate(1444.1 109.037) rotate(39.2248)"/>
</clipPath>
<clipPath id="clip18_57_17388">
<rect width="13.144" height="12.9353" fill="white" transform="translate(1392.51 64.8398) rotate(39.2248)"/>
</clipPath>
<clipPath id="clip19_57_17388">
<rect width="13.144" height="12.9353" fill="white" transform="matrix(-0.77467 -0.632365 -0.632365 0.77467 1383.06 15.3813)"/>
</clipPath>
<clipPath id="clip20_57_17388">
<rect width="13.144" height="12.9353" fill="white" transform="matrix(-0.77467 -0.632365 -0.632365 0.77467 1435.44 56.0503)"/>
</clipPath>
<clipPath id="clip21_57_17388">
<rect width="13.144" height="12.9353" fill="white" transform="matrix(-0.77467 -0.632365 -0.632365 0.77467 1432.09 11.5718)"/>
</clipPath>
<clipPath id="clip22_57_17388">
<rect width="13.144" height="12.9353" fill="white" transform="matrix(-0.77467 -0.632365 -0.632365 0.77467 1337.79 22.2583)"/>
</clipPath>
<clipPath id="clip23_57_17388">
<rect width="13.144" height="12.9353" fill="white" transform="matrix(-0.77467 -0.632365 -0.632365 0.77467 1441.75 107.124)"/>
</clipPath>
<clipPath id="clip24_57_17388">
<rect width="13.144" height="12.9353" fill="white" transform="matrix(-0.77467 -0.632365 -0.632365 0.77467 1390.17 62.9272)"/>
</clipPath>
</defs>
</svg>
