<?xml version="1.0" encoding="UTF-8"?>
<svg id="Calque_1" data-name="Calque 1" xmlns="http://www.w3.org/2000/svg" xmlns:xlink="http://www.w3.org/1999/xlink" viewBox="0 0 191.73 350.98">
  <defs>
    <style>
      .cls-1 {
        clip-path: url(#clippath);
      }

      .cls-2, .cls-3, .cls-4, .cls-5, .cls-6, .cls-7 {
        stroke-width: 0px;
      }

      .cls-2, .cls-8, .cls-9 {
        fill: none;
      }

      .cls-3 {
        opacity: .4;
      }

      .cls-3, .cls-8 {
        isolation: isolate;
      }

      .cls-8 {
        opacity: .35;
        stroke: #000;
        stroke-width: .49px;
      }

      .cls-9 {
        stroke: rgba(255, 255, 255, .47);
        stroke-width: 4.86px;
      }

      .cls-5 {
        fill: rgba(217, 217, 217, .26);
      }

      .cls-6 {
        fill: #fff;
      }

      .cls-7 {
        fill-rule: evenodd;
      }
    </style>
    <clipPath id="clippath">
      <rect class="cls-2" x="4.86" y="4.86" width="182" height="341.25" rx="18" ry="18"/>
    </clipPath>
  </defs>
  <g class="cls-1">
    <g>
      <rect class="cls-6" x="4.86" y="4.86" width="182" height="341.25" rx="18" ry="18"/>
      <rect class="cls-4" x="63.24" y="339.79" width="65.19" height="2.43" rx="1.22" ry="1.22"/>
      <rect class="cls-5" x="4.86" y="4.86" width="182" height="18.49"/>
      <rect class="cls-8" x="168.73" y="13.54" width="10.22" height="5.03" rx="1.05" ry="1.05"/>
      <path class="cls-3" d="m179.67,15.08v1.95c.39-.16.65-.55.65-.97s-.26-.81-.65-.97"/>
      <rect class="cls-4" x="169.46" y="14.27" width="8.76" height="3.57" rx=".65" ry=".65"/>
      <path class="cls-7" d="m161.95,13.11c1.08,0,2.12.36,2.9,1,.06.05.15.05.21,0l.56-.49s.05-.06.05-.1c0-.04-.02-.07-.05-.1-2.05-1.7-5.29-1.7-7.35,0-.03.03-.05.06-.05.1s.02.07.04.1l.56.49c.06.05.15.05.21,0,.78-.64,1.82-1,2.9-1Zm0,1.6c.59,0,1.17.19,1.6.54.06.05.15.05.21,0l.56-.49s.05-.06.05-.1c0-.04-.02-.07-.05-.1-1.34-1.08-3.41-1.08-4.75,0-.03.03-.05.06-.05.1,0,.04.02.07.05.1l.56.49c.06.05.15.05.21,0,.44-.34,1.01-.53,1.6-.54Zm1.13,1.08s-.01.07-.04.1l-.97.85s-.07.04-.11.04-.08-.01-.11-.04l-.97-.85s-.05-.06-.05-.1c0-.04.02-.07.05-.1.62-.45,1.53-.45,2.15,0,.03.02.05.06.05.1Z"/>
      <path class="cls-7" d="m155.32,12.29h-.49c-.27,0-.49.19-.49.42v3.64c0,.23.22.42.49.42h.49c.27,0,.49-.19.49-.42v-3.64c0-.23-.22-.42-.49-.42Zm-2.75.98h.49c.27,0,.49.19.49.42v2.66c0,.23-.22.42-.49.42h-.49c-.27,0-.49-.19-.49-.42v-2.66c0-.23.22-.42.49-.42Zm-1.78.98h-.49c-.27,0-.49.19-.49.42v1.68c0,.23.22.42.49.42h.49c.27,0,.49-.19.49-.42v-1.68c0-.23-.22-.42-.49-.42Zm-2.26.84h-.49c-.27,0-.49.19-.49.42v.84c0,.23.22.42.49.42h.49c.27,0,.49-.19.49-.42v-.84c0-.23-.22-.42-.49-.42Z"/>
      <path class="cls-4" d="m22.94,11.94c1.1,0,2.05.78,2.05,2.63h0c0,1.74-.78,2.77-2.07,2.77-.94,0-1.65-.56-1.81-1.35v-.04s.9,0,.9,0v.04c.15.36.46.59.92.59.82,0,1.16-.8,1.2-1.78,0-.04,0-.08,0-.12h-.07c-.19.41-.64.77-1.34.77-.99,0-1.68-.72-1.68-1.7h0c0-1.05.79-1.81,1.91-1.81Zm0,2.8c.58,0,1.03-.42,1.03-1h0c0-.6-.45-1.05-1.02-1.05s-1.02.45-1.02,1.03h0c0,.6.42,1.03,1.01,1.03Zm3.53-.87c-.32,0-.57-.25-.57-.56s.24-.56.57-.56.57.25.57.56-.24.56-.57.56Zm0,2.64c-.32,0-.57-.25-.57-.56s.24-.56.57-.56.57.25.57.56-.24.56-.57.56Zm3.97.69v-.99h-2.52v-.75c.67-1.16,1.4-2.34,2.1-3.4h1.3v3.4h.69v.76h-.69v.99h-.88Zm-1.66-1.72h1.67v-2.68h-.05c-.53.81-1.12,1.76-1.62,2.63v.05Zm5.22,1.72v-4.24h-.06l-1.28.9v-.87l1.34-.94h.92v5.14h-.92Z"/>
    </g>
  </g>
  <rect class="cls-9" x="2.43" y="2.43" width="186.87" height="346.11" rx="20.43" ry="20.43"/>
</svg>