<svg width="20" height="19" viewBox="0 0 20 19" fill="none" xmlns="http://www.w3.org/2000/svg">
<path d="M10.1115 5.10168C9.95578 5.10168 9.80002 5.10168 9.61313 5.10168C9.42623 5.10168 9.30165 5.13284 9.14591 5.16398C8.99016 5.19513 8.83434 5.22627 8.67859 5.28857L8.24255 5.44433L7.8376 5.63121L7.43265 5.88041L7.05887 6.16076L6.71627 6.47224L6.40476 6.81489L6.12443 7.18867L5.87519 7.59362L5.6883 7.99856C5.6883 7.99856 5.56374 8.2789 5.53259 8.43465C5.50144 8.59039 5.43912 8.74613 5.40797 8.90188C5.37682 9.05762 5.3457 9.21337 5.3457 9.36912C5.3457 9.52486 5.3457 9.68062 5.3457 9.83636C5.3457 9.99211 5.3457 10.1478 5.3457 10.3036C5.3457 10.4593 5.37682 10.6151 5.40797 10.7708C5.43912 10.9266 5.47029 11.0823 5.53259 11.2381C5.59489 11.3938 5.626 11.5184 5.6883 11.6742L5.87519 12.0791L6.12443 12.484L6.40476 12.8578L6.71627 13.2005L7.05887 13.512L7.43265 13.7923L7.8376 14.0415L8.24255 14.2284L8.67859 14.3841L9.14591 14.5087C9.14591 14.5087 9.45738 14.571 9.61313 14.571C9.76887 14.571 9.92463 14.571 10.1115 14.571C10.2673 14.571 10.423 14.571 10.6099 14.571C10.7657 14.571 10.9214 14.5399 11.0771 14.5087L11.5444 14.3841L11.9805 14.2284L12.3854 14.0415L12.7903 13.7923L13.1641 13.512L13.5068 13.2005L13.8183 12.8578L14.0986 12.484L14.3478 12.0791L14.5347 11.6742L14.6905 11.2381C14.6905 11.2381 14.7838 10.9266 14.815 10.7708L14.8773 10.3036C14.8773 10.1478 14.8773 9.99211 14.8773 9.83636C14.8773 9.68062 14.8773 9.52486 14.8773 9.36912C14.8773 9.21337 14.8461 9.05762 14.815 8.90188C14.7838 8.74613 14.7528 8.59039 14.6905 8.43465L14.5347 7.99856L14.3478 7.59362L14.0986 7.18867L13.8183 6.81489L13.5068 6.47224L13.1641 6.16076L12.7903 5.88041L12.3854 5.63121L11.9805 5.44433L11.5444 5.28857L11.0771 5.16398L10.6099 5.10168C10.4542 5.10168 10.2984 5.10168 10.1115 5.10168ZM10.1115 6.72144C10.1115 6.72144 10.3296 6.72144 10.423 6.72144L10.7345 6.78374L11.046 6.84603L11.3263 6.93949L11.6066 7.06409L11.8559 7.21983L12.105 7.40672L12.3231 7.59362L12.51 7.81166L12.6969 8.06086L12.8527 8.31005L12.9772 8.59039C12.9772 8.59039 13.0395 8.77728 13.0706 8.87073C13.1018 8.96418 13.133 9.05762 13.133 9.18222C13.133 9.30682 13.1641 9.40027 13.1953 9.49372V9.80521C13.1953 9.80521 13.1953 10.0233 13.1953 10.1167C13.1953 10.2102 13.1953 10.3347 13.133 10.4282C13.0707 10.5216 13.1018 10.6151 13.0706 10.7397L12.9772 11.02L12.8527 11.3004L12.6969 11.5496L12.51 11.7988L12.3231 12.0168L12.105 12.2037L11.8559 12.3906L11.6066 12.5463L11.3263 12.6709L11.046 12.7644L10.7345 12.8267H10.423C10.423 12.8267 10.205 12.889 10.1115 12.889C10.0181 12.889 9.89346 12.889 9.80001 12.889H9.4885C9.4885 12.889 9.30159 12.7955 9.17699 12.7644L8.89666 12.6709L8.61633 12.5463L8.36718 12.3906L8.11793 12.2037L7.89986 12.0168L7.71298 11.7988L7.52609 11.5496L7.37038 11.3004L7.24576 11.02L7.15231 10.7397L7.09005 10.4282L7.02769 10.1167C7.02769 10.1167 7.02769 9.89865 7.02769 9.80521C7.02769 9.71176 7.02769 9.58717 7.02769 9.49372C7.02769 9.40027 7.02775 9.27567 7.09005 9.18222C7.09005 9.08877 7.12116 8.99533 7.15231 8.87073L7.24576 8.59039L7.37038 8.31005L7.52609 8.06086L7.71298 7.81166L7.89986 7.59362L8.11793 7.40672L8.36718 7.21983L8.61633 7.06409L8.89666 6.93949C8.89666 6.93949 9.08354 6.87718 9.17699 6.84603L9.4885 6.78374C9.4885 6.78374 9.70657 6.75259 9.80001 6.72144C9.89346 6.72144 10.0181 6.72144 10.1115 6.72144Z" fill="white"/>
<path d="M15.0336 3.75793C15.0336 3.75793 14.9713 3.75793 14.909 3.75793C14.8778 3.75793 14.8467 3.75793 14.7844 3.75793C14.7533 3.75793 14.7221 3.75793 14.6598 3.75793C14.6287 3.75793 14.5975 3.75793 14.5664 3.78908C14.5352 3.78908 14.5041 3.82023 14.4729 3.85138C14.4418 3.85138 14.4106 3.88253 14.3795 3.91368C14.3795 3.91368 14.3172 3.94483 14.286 3.97598C14.286 3.97598 14.2238 4.03828 14.1926 4.03828C14.1926 4.03828 14.1302 4.10057 14.1302 4.13172C14.1302 4.13172 14.0991 4.19402 14.068 4.22517C14.068 4.25631 14.0369 4.28747 14.0057 4.31862C14.0057 4.34977 13.9745 4.38092 13.9745 4.41206C13.9745 4.44321 13.9745 4.47436 13.9434 4.50551C13.9434 4.53666 13.9434 4.56781 13.9434 4.63011C13.9434 4.66126 13.9434 4.69241 13.9434 4.75471C13.9434 4.75471 13.9434 4.817 13.9434 4.84815C13.9434 4.8793 13.9434 4.91045 13.9434 4.97275C13.9434 5.0039 13.9434 5.03505 13.9434 5.09735C13.9434 5.1285 13.9434 5.15965 13.9434 5.22195C13.9434 5.2531 13.9434 5.28424 13.9745 5.31539C13.9745 5.34654 13.9745 5.37769 14.0368 5.40884C14.0368 5.43999 14.068 5.47114 14.0992 5.50229C14.0992 5.53344 14.1303 5.56459 14.1614 5.59574C14.1614 5.59574 14.2237 5.65803 14.2237 5.68918C14.2237 5.68918 14.2861 5.75148 14.3172 5.75148C14.3172 5.75148 14.3795 5.78263 14.4107 5.81378C14.4418 5.81378 14.473 5.84493 14.5041 5.87608C14.5353 5.87608 14.5664 5.90722 14.5976 5.90722C14.6287 5.90722 14.6599 5.90723 14.691 5.93838C14.7222 5.93838 14.7532 5.93838 14.8155 5.93838C14.8467 5.93838 14.8779 5.93838 14.9402 5.93838C14.9402 5.93838 15.0025 5.93838 15.0336 5.93838C15.0647 5.93838 15.0959 5.93838 15.1582 5.93838C15.1894 5.93838 15.2205 5.93838 15.2828 5.93838C15.314 5.93838 15.3451 5.93838 15.4074 5.93838C15.4385 5.93838 15.4697 5.93837 15.5008 5.90722C15.532 5.90722 15.5631 5.87607 15.5943 5.84492C15.6254 5.84492 15.6566 5.81377 15.6877 5.78262C15.6877 5.78262 15.75 5.75149 15.7811 5.72034C15.7811 5.72034 15.8435 5.65804 15.8747 5.65804C15.8747 5.65804 15.937 5.59573 15.937 5.56458C15.937 5.56458 15.9681 5.50229 15.9992 5.47114C15.9992 5.43999 16.0304 5.40884 16.0616 5.37769C16.0616 5.34654 16.0927 5.31539 16.0927 5.28424C16.0927 5.25309 16.0927 5.22194 16.1238 5.19079C16.1238 5.15964 16.1238 5.12849 16.1238 5.06619C16.1238 5.03505 16.1238 5.00391 16.1238 4.94161C16.1238 4.94161 16.1238 4.8793 16.1238 4.84815C16.1238 4.817 16.1238 4.78586 16.1238 4.72356C16.1238 4.69241 16.1238 4.66126 16.1238 4.59896C16.1238 4.56781 16.1238 4.53666 16.1238 4.47436C16.1238 4.44322 16.1238 4.41207 16.0927 4.38092C16.0927 4.34977 16.0927 4.31861 16.0304 4.28746C16.0304 4.25632 15.9993 4.22517 15.9681 4.19402C15.9681 4.16287 15.9369 4.13173 15.9058 4.10058C15.9058 4.10058 15.8435 4.03827 15.8435 4.00712C15.8435 4.00712 15.7812 3.94483 15.7501 3.94483C15.7501 3.94483 15.6878 3.91368 15.6566 3.88253C15.6255 3.88253 15.5943 3.85138 15.5632 3.82023C15.532 3.82023 15.5009 3.78908 15.4697 3.78908C15.4386 3.78908 15.4074 3.78908 15.3763 3.75793C15.3451 3.75793 15.314 3.75793 15.2517 3.75793C15.2205 3.75793 15.1893 3.75793 15.127 3.75793C15.127 3.75793 15.0647 3.75793 15.0336 3.75793Z" fill="white"/>
<path d="M9.21305 0.589766C8.68352 0.589766 8.24739 0.589766 7.8113 0.589766H6.68998C6.34733 0.620915 6.067 0.65206 5.8178 0.683209C5.69321 0.683209 5.56862 0.683216 5.44403 0.714365C5.31943 0.714365 5.22593 0.714367 5.10134 0.776665C5.00789 0.776665 4.88327 0.807816 4.78983 0.838965C4.69638 0.870114 4.60294 0.870103 4.50949 0.901253C4.41605 0.901253 4.35379 0.963559 4.26034 0.994708C4.1669 0.994708 4.10454 1.057 4.0111 1.08815C3.85535 1.15045 3.69962 1.21275 3.54388 1.3062C3.41928 1.36849 3.29473 1.4308 3.20128 1.49309C3.10783 1.55539 2.98322 1.61769 2.88977 1.71114C2.79632 1.80459 2.67171 1.86688 2.57826 1.96033C2.48481 2.05377 2.39135 2.14723 2.26675 2.27182C2.14215 2.39642 2.0176 2.55216 1.92415 2.67676C1.86186 2.73905 1.83065 2.80136 1.76835 2.86365C1.7372 2.92595 1.67497 2.98826 1.64382 3.05055C1.61267 3.11285 1.55035 3.17514 1.5192 3.23744C1.48805 3.29974 1.45691 3.36204 1.42576 3.45548C1.36346 3.61123 1.30117 3.76698 1.23887 3.92273C1.20772 4.04732 1.14539 4.17192 1.11425 4.32767C1.0831 4.45227 1.05195 4.60801 1.0208 4.76376C0.989652 4.9195 0.958507 5.07525 0.927358 5.26214C0.927358 5.44904 0.896243 5.66708 0.865094 5.85397C0.865094 6.07202 0.865063 6.32121 0.833914 6.5704V7.47373L0.802734 8.56396V9.87222V11.8035V13.2675L0.865094 13.8282V14.2954C0.865094 14.2954 0.927388 14.5446 0.958537 14.6692C0.958537 14.7938 0.989652 14.8872 1.0208 14.9495C1.05195 15.1364 1.11428 15.2922 1.14542 15.4479C1.20772 15.6037 1.23883 15.7594 1.30113 15.9152C1.36343 16.0709 1.42575 16.2267 1.5192 16.3513C1.61265 16.4759 1.6749 16.6316 1.76835 16.7562C1.8618 16.8808 1.95533 17.0054 2.04878 17.13C2.14223 17.2546 2.2356 17.3792 2.36019 17.4726C2.48479 17.5972 2.57829 17.6907 2.70288 17.7841C2.82748 17.8776 2.95206 17.971 3.07666 18.0645C3.20126 18.1579 3.32584 18.2202 3.45043 18.2825C3.57503 18.3448 3.69961 18.4071 3.82421 18.4694C3.94881 18.5317 4.07342 18.5628 4.22916 18.6251C4.35376 18.6563 4.50955 18.7186 4.6653 18.7497C4.82104 18.7809 4.97677 18.812 5.13252 18.8432C5.28826 18.8743 5.4751 18.9055 5.662 18.9055C5.84889 18.9055 6.06698 18.9366 6.28502 18.9678C6.50307 18.9989 6.75229 18.9678 7.00149 18.9989C7.40643 18.9989 7.96711 18.9989 8.65239 18.9989H10.864L12.951 18.9678H13.7297L14.2592 18.9055C14.3838 18.9055 14.4773 18.9055 14.5707 18.8743C14.6642 18.8432 14.7888 18.8743 14.8822 18.8432C14.9757 18.812 15.0691 18.812 15.1626 18.7809C15.256 18.7809 15.3494 18.7497 15.4429 18.7186C15.5363 18.7186 15.6298 18.6563 15.7232 18.6251C15.8167 18.594 15.9101 18.5628 16.0036 18.5317C16.097 18.5005 16.1904 18.4694 16.2839 18.4382C16.3773 18.4071 16.4708 18.3448 16.5642 18.3136C16.6888 18.2513 16.8135 18.1891 16.9069 18.1268C17.0004 18.0645 17.0938 18.0333 17.1561 17.971C17.2495 17.9087 17.3119 17.8464 17.4053 17.753C17.4987 17.6595 17.6233 17.5661 17.7479 17.4415C17.8725 17.3169 17.966 17.2234 18.0594 17.13C18.1529 17.0365 18.2152 16.9431 18.2775 16.8808C18.3398 16.8185 18.402 16.725 18.4332 16.6316C18.4955 16.5382 18.5267 16.4758 18.589 16.3824C18.6513 16.2578 18.7136 16.1021 18.7759 15.9775C18.8382 15.8529 18.8693 15.7283 18.9316 15.6037C18.9627 15.4791 19.0251 15.3545 19.0562 15.2299C19.0874 15.1053 19.1185 14.9495 19.1496 14.8249C19.1808 14.7003 19.1808 14.5134 19.2119 14.3266C19.2431 14.1397 19.2431 13.9528 19.2743 13.7036V12.956L19.3365 12.0215V10.9624V9.87222V7.69178L19.3054 6.72616V5.88513L19.2119 5.231C19.2119 5.0441 19.1808 4.9195 19.1496 4.82606C19.1496 4.73261 19.1185 4.608 19.0874 4.51456C19.0874 4.42111 19.0251 4.29652 18.9939 4.20307C18.9939 4.10962 18.9316 4.01617 18.9004 3.92273C18.8693 3.82928 18.8381 3.73583 18.807 3.64238C18.7758 3.54894 18.7136 3.45549 18.6824 3.36204C18.6513 3.26859 18.589 3.17515 18.5578 3.11285C18.5267 3.05056 18.4644 2.9571 18.4021 2.86365C18.3398 2.77021 18.3086 2.70791 18.2463 2.64561C18.184 2.58331 18.1217 2.48987 18.0906 2.42757C18.0283 2.36527 17.966 2.27182 17.9037 2.20952C17.8414 2.14723 17.7791 2.08492 17.7168 2.02263C17.6545 1.96033 17.5922 1.89804 17.4987 1.83574C17.4364 1.77344 17.343 1.71114 17.2807 1.64884C17.2184 1.58654 17.1249 1.55539 17.0626 1.49309C16.9692 1.4308 16.9069 1.39965 16.8135 1.33735C16.72 1.27505 16.6577 1.2439 16.5642 1.21275C16.4085 1.15045 16.284 1.08815 16.1594 1.02585C16.0348 0.963554 15.9101 0.932407 15.7544 0.870109C15.6298 0.83896 15.474 0.776658 15.3183 0.745509C15.1625 0.71436 15.0068 0.683215 14.8199 0.652065C14.633 0.620916 14.415 0.620915 14.1658 0.589766C13.9166 0.558616 13.6363 0.589771 13.3248 0.558622H12.2657L10.9262 0.527466H9.21305V0.589766ZM10.1164 2.20952H12.6083L13.5428 2.24067C13.792 2.24067 14.01 2.24067 14.1035 2.24067C14.2592 2.24067 14.3838 2.24067 14.5395 2.30297C14.6641 2.30297 14.7887 2.33412 14.9445 2.36527C15.0691 2.36527 15.1937 2.42756 15.2872 2.45871C15.3806 2.48986 15.5051 2.52101 15.5986 2.58331C15.692 2.64561 15.8167 2.67676 15.9101 2.70791C16.0036 2.77021 16.097 2.80136 16.1904 2.86365C16.2839 2.92595 16.3774 2.98826 16.4397 3.05055C16.502 3.11285 16.5954 3.2063 16.6888 3.2686C16.7823 3.36204 16.8446 3.42434 16.9069 3.51778C16.9692 3.61123 17.0315 3.70468 17.0938 3.79813C17.1561 3.89158 17.2183 3.98503 17.2495 4.10963C17.3118 4.20307 17.343 4.32767 17.3741 4.45227C17.4053 4.57687 17.4364 4.70146 17.4676 4.82606C17.4987 4.9818 17.5299 5.1064 17.561 5.26214C17.561 5.41789 17.5922 5.57363 17.6234 5.76053C17.6545 5.94742 17.6545 6.13432 17.6545 6.32122C17.6545 6.47696 17.6545 6.69501 17.6545 6.9442V7.78523V9.84108V11.8969L17.6234 12.738V13.3609C17.5922 13.6413 17.5611 13.8905 17.5299 14.1085C17.5299 14.202 17.5299 14.2954 17.4987 14.3889C17.4987 14.4823 17.4987 14.5757 17.4676 14.638C17.4676 14.7003 17.4365 14.7938 17.4053 14.8561C17.4053 14.9184 17.3741 15.0118 17.3429 15.0741C17.3429 15.1364 17.2806 15.2299 17.2495 15.2922C17.2495 15.3545 17.1872 15.4479 17.1561 15.5102C17.1561 15.5725 17.0938 15.6348 17.0626 15.6971C17.0315 15.7594 17.0003 15.8217 16.9692 15.884C16.938 15.9463 16.9069 16.0086 16.8446 16.0398C16.8135 16.1021 16.7512 16.1332 16.72 16.1955C16.6889 16.2578 16.6265 16.289 16.5954 16.3513C16.5331 16.4136 16.502 16.4447 16.4397 16.4758C16.3774 16.507 16.3462 16.5693 16.2839 16.6004C16.2216 16.6316 16.1593 16.6939 16.1282 16.725C16.097 16.7562 16.0036 16.7873 15.9413 16.8185C15.879 16.8496 15.8167 16.8808 15.7544 16.9119C15.6921 16.9431 15.6298 16.9742 15.5363 17.0054C15.474 17.0054 15.3806 17.0677 15.3183 17.0988C15.1625 17.1611 15.0068 17.1923 14.851 17.2234C14.6642 17.2546 14.5085 17.2857 14.3216 17.3169C14.2593 17.3169 14.1035 17.3169 13.8854 17.3169H13.0444L10.6459 17.3792H8.15399H7.18837H6.56535L6.09813 17.3169C5.94239 17.3169 5.81778 17.3169 5.69318 17.2857C5.56858 17.2546 5.44403 17.2546 5.35058 17.2234C5.25714 17.2234 5.13252 17.1923 5.03907 17.1611C4.94563 17.1611 4.85219 17.0988 4.75874 17.0677C4.66529 17.0677 4.57179 17.0054 4.50949 16.9742C4.4472 16.9431 4.35379 16.9119 4.26034 16.8496C4.1669 16.7873 4.10454 16.7562 4.0111 16.6939C3.9488 16.6627 3.88651 16.6316 3.82421 16.5693C3.76191 16.507 3.69965 16.4758 3.6685 16.4447C3.63735 16.4136 3.57509 16.3512 3.51279 16.3201C3.45049 16.289 3.41932 16.2267 3.38817 16.1644C3.35702 16.1021 3.2947 16.0709 3.26355 16.0086C3.2324 15.9463 3.17007 15.9152 3.13892 15.8529C3.10777 15.7906 3.07663 15.7283 3.04548 15.6971C3.01433 15.6348 2.98318 15.5725 2.95204 15.5102C2.95204 15.4479 2.88974 15.3856 2.85859 15.3233C2.85859 15.261 2.79633 15.1987 2.79633 15.1053C2.73403 14.9495 2.70285 14.8249 2.6717 14.638C2.64056 14.4511 2.60941 14.2954 2.57826 14.1085C2.54711 13.9216 2.516 13.7347 2.516 13.5167C2.516 13.3609 2.516 13.1117 2.516 12.8314V11.7723V9.06235L2.57826 6.47696V5.57363L2.64062 5.26214C2.64062 5.1687 2.64062 5.10639 2.64062 5.07524C2.64062 4.95065 2.70288 4.85721 2.70288 4.73261C2.70288 4.63917 2.76518 4.54572 2.79633 4.45227C2.79633 4.35882 2.85862 4.26537 2.88977 4.20307C2.88977 4.14077 2.95207 4.04733 2.98322 3.98503C3.01436 3.92273 3.04554 3.82928 3.10784 3.76698C3.17014 3.70469 3.20122 3.64238 3.23237 3.58008C3.26352 3.51779 3.32587 3.4555 3.38817 3.3932C3.45047 3.3309 3.51276 3.2686 3.57506 3.2063C3.6685 3.11285 3.73076 3.05055 3.82421 2.98825C3.91766 2.92596 3.98001 2.86365 4.07346 2.80135C4.1669 2.73906 4.26034 2.67676 4.35379 2.64561C4.44723 2.61446 4.54067 2.55216 4.63412 2.52101C4.72757 2.48986 4.85218 2.45872 4.94563 2.42757C5.07023 2.39642 5.19478 2.36527 5.28822 2.33412C5.41282 2.33412 5.53743 2.30297 5.69318 2.27182C5.84892 2.24068 5.9735 2.24067 6.1604 2.20952C6.28499 2.20952 6.47196 2.20952 6.72116 2.20952H7.65559L10.1475 2.17837L10.1164 2.20952Z" fill="white"/>
</svg>
