<svg width="53" height="53" viewBox="0 0 53 53" fill="none" xmlns="http://www.w3.org/2000/svg">
<g clip-path="url(#clip0_58_22585)">
<rect x="5.85747" y="4.68291" width="41.1265" height="41.1265" rx="8.5203" stroke="#24633F" stroke-width="3.06016"/>
</g>
<g clip-path="url(#clip1_58_22585)">
<rect x="-1.53008" y="1.53008" width="41.1265" height="41.1265" rx="8.5203" transform="matrix(-1 0 0 1 46.0512 3.15283)" stroke="#24633F" stroke-width="3.06016"/>
</g>
<g clip-path="url(#clip2_58_22585)">
<rect x="47.5812" y="47.3396" width="41.1265" height="41.1265" rx="8.5203" transform="rotate(180 47.5812 47.3396)" stroke="#24633F" stroke-width="3.06016"/>
</g>
<g clip-path="url(#clip3_58_22585)">
<rect x="1.53008" y="-1.53008" width="41.1265" height="41.1265" rx="8.5203" transform="matrix(1 0 0 -1 4.32739 45.8095)" stroke="#24633F" stroke-width="3.06016"/>
</g>
<g clip-path="url(#clip4_58_22585)">
<rect x="26.7197" y="2.16386" width="31.9324" height="31.9324" rx="6.42908" transform="rotate(45 26.7197 2.16386)" stroke="#45BC77" stroke-width="3.06016"/>
</g>
<g clip-path="url(#clip5_58_22585)">
<rect x="2.84213" y="26.1403" width="31.9324" height="31.9324" rx="6.42908" transform="rotate(-41.5807 2.84213 26.1403)" stroke="#45BC77" stroke-width="3.06016"/>
</g>
<g clip-path="url(#clip6_58_22585)">
<rect x="26.7197" y="49.8588" width="31.9324" height="31.9324" rx="6.42908" transform="rotate(-135 26.7197 49.8588)" stroke="#45BC77" stroke-width="3.06016"/>
</g>
<g clip-path="url(#clip7_58_22585)">
<rect x="50.5183" y="26.3984" width="31.9324" height="31.9324" rx="6.42908" transform="rotate(135 50.5183 26.3984)" stroke="#45BC77" stroke-width="3.06016"/>
</g>
<path d="M16.7499 27.1055C16.3594 26.715 16.3594 26.0819 16.7499 25.6913L23.1139 19.3274C23.5044 18.9368 24.1376 18.9368 24.5281 19.3274C24.9186 19.7179 24.9186 20.3511 24.5281 20.7416L18.8712 26.3984L24.5281 32.0553C24.9186 32.4458 24.9186 33.079 24.5281 33.4695C24.1376 33.86 23.5044 33.86 23.1139 33.4695L16.7499 27.1055ZM35.9819 27.3984H17.457V25.3984H35.9819V27.3984Z" fill="#24633F"/>
<defs>
<clipPath id="clip0_58_22585">
<rect width="12.4382" height="12.2406" fill="white" transform="translate(3.00366 3.06006)"/>
</clipPath>
<clipPath id="clip1_58_22585">
<rect width="12.4382" height="12.2406" fill="white" transform="matrix(-1 0 0 1 49.6465 3.06006)"/>
</clipPath>
<clipPath id="clip2_58_22585">
<rect width="12.4382" height="12.2406" fill="white" transform="matrix(-1 0 0 -1 49.6465 48.9624)"/>
</clipPath>
<clipPath id="clip3_58_22585">
<rect width="12.4382" height="12.2406" fill="white" transform="matrix(1 0 0 -1 3.00366 48.9624)"/>
</clipPath>
<clipPath id="clip4_58_22585">
<rect width="9.18047" height="9.18047" fill="white" transform="translate(26.7197) rotate(45)"/>
</clipPath>
<clipPath id="clip5_58_22585">
<rect width="9.18047" height="9.18047" fill="white" transform="translate(0.682129 26.0112) rotate(-41.5807)"/>
</clipPath>
<clipPath id="clip6_58_22585">
<rect width="9.18047" height="9.18047" fill="white" transform="translate(26.7197 52.0227) rotate(-135)"/>
</clipPath>
<clipPath id="clip7_58_22585">
<rect width="9.18047" height="9.18047" fill="white" transform="translate(52.6821 26.3984) rotate(135)"/>
</clipPath>
</defs>
</svg>
