<svg width="32" height="32" viewBox="0 0 32 32" fill="none" xmlns="http://www.w3.org/2000/svg">
<rect x="3.24618" y="3.35726" width="24.9019" height="24.9019" rx="4.98472" stroke="#1EA155" stroke-width="2.49236"/>
<rect x="8.85425" y="2.11108" width="13.6859" height="2.77434" fill="#24633F"/>
<rect x="8.85425" y="26.731" width="13.6859" height="2.77434" fill="#24633F"/>
<rect x="2" y="22.6512" width="13.6859" height="2.77434" transform="rotate(-90 2 22.6512)" fill="#24633F"/>
<rect x="26.6201" y="22.6512" width="13.6859" height="2.77434" transform="rotate(-90 26.6201 22.6512)" fill="#24633F"/>
<rect x="1.7597" y="15.3635" width="19.7205" height="19.7205" rx="3.94753" transform="rotate(-43.1725 1.7597 15.3635)" stroke="#103D23" stroke-width="1.97377"/>
<rect x="4.32349" y="11.6051" width="10.8382" height="2.19707" transform="rotate(-43.1725 4.32349 11.6051)" fill="#24633F"/>
<rect x="17.6633" y="25.8243" width="10.8382" height="2.19707" transform="rotate(-43.1725 17.6633 25.8243)" fill="#24633F"/>
<rect x="11.4941" y="27.1819" width="10.8382" height="2.19707" transform="rotate(-133.172 11.4941 27.1819)" fill="#24633F"/>
<rect x="25.7134" y="13.8419" width="10.8382" height="2.19707" transform="rotate(-133.172 25.7134 13.8419)" fill="#24633F"/>
<path d="M8.23147 17.3805C6.98289 16.8464 7.00375 15.0692 8.26453 14.5646L12.1113 13.025C12.4868 12.8748 12.7871 12.5814 12.9462 12.2096L14.5756 8.39998C15.1097 7.1514 16.8869 7.17226 17.3915 8.43304L18.9311 12.2798C19.0814 12.6553 19.3747 12.9556 19.7466 13.1147L23.5562 14.7441C24.8047 15.2782 24.7839 17.0554 23.5231 17.56L19.6763 19.0996C19.3008 19.2499 19.0005 19.5432 18.8415 19.9151L17.212 23.7247C16.6779 24.9733 14.9007 24.9524 14.3961 23.6916L12.8565 19.8448C12.7063 19.4694 12.4129 19.169 12.0411 19.01L8.23147 17.3805Z" fill="#25D46F"/>
</svg>
