<svg width="150" height="34" viewBox="0 0 150 34" fill="none" xmlns="http://www.w3.org/2000/svg">
<g clip-path="url(#clip0_49_8977)">
<path d="M13.7423 6.04429C14.429 4.21277 17.0197 4.21276 17.7063 6.04428L19.737 11.4605C19.9362 11.9919 20.3405 12.421 20.8591 12.6516L26.2892 15.0658C27.9649 15.8109 27.9649 18.1892 26.2892 18.9342L20.8591 21.3484C20.3405 21.579 19.9362 22.0081 19.737 22.5395L17.7063 27.9557C17.0197 29.7873 14.429 29.7873 13.7423 27.9557L11.7116 22.5395C11.5124 22.0081 11.1081 21.579 10.5896 21.3484L5.15947 18.9342C3.48374 18.1892 3.48374 15.8109 5.15947 15.0658L10.5896 12.6516C11.1081 12.421 11.5124 11.9919 11.7116 11.4605L13.7423 6.04429Z" fill="#45BC77"/>
<path d="M43.5726 6.04429C44.2593 4.21277 46.85 4.21276 47.5367 6.04428L49.5673 11.4605C49.7666 11.9919 50.1708 12.421 50.6894 12.6516L56.1195 15.0658C57.7952 15.8109 57.7952 18.1892 56.1195 18.9342L50.6894 21.3484C50.1708 21.579 49.7666 22.0081 49.5673 22.5395L47.5367 27.9557C46.85 29.7873 44.2593 29.7873 43.5726 27.9557L41.5419 22.5395C41.3427 22.0081 40.9384 21.579 40.4199 21.3484L34.9898 18.9342C33.3141 18.1892 33.3141 15.8109 34.9898 15.0658L40.4199 12.6516C40.9384 12.421 41.3427 11.9919 41.5419 11.4605L43.5726 6.04429Z" fill="#45BC77"/>
<path d="M73.4032 6.04429C74.0899 4.21277 76.6805 4.21276 77.3672 6.04428L79.3979 11.4605C79.5971 11.9919 80.0014 12.421 80.52 12.6516L85.95 15.0658C87.6258 15.8109 87.6258 18.1892 85.9501 18.9342L80.52 21.3484C80.0014 21.579 79.5971 22.0081 79.3979 22.5395L77.3672 27.9557C76.6805 29.7873 74.0899 29.7873 73.4032 27.9557L71.3725 22.5395C71.1733 22.0081 70.769 21.579 70.2504 21.3484L64.8204 18.9342C63.1446 18.1892 63.1446 15.8109 64.8204 15.0658L70.2504 12.6516C70.769 12.421 71.1733 11.9919 71.3725 11.4605L73.4032 6.04429Z" fill="#45BC77"/>
<path d="M103.234 6.04429C103.92 4.21277 106.511 4.21276 107.198 6.04428L109.228 11.4605C109.428 11.9919 109.832 12.421 110.351 12.6516L115.781 15.0658C117.456 15.8109 117.456 18.1892 115.781 18.9342L110.351 21.3484C109.832 21.579 109.428 22.0081 109.228 22.5395L107.198 27.9557C106.511 29.7873 103.92 29.7873 103.234 27.9557L101.203 22.5395C101.004 22.0081 100.6 21.579 100.081 21.3484L94.6509 18.9342C92.9752 18.1892 92.9752 15.8109 94.6509 15.0658L100.081 12.6516C100.6 12.421 101.004 11.9919 101.203 11.4605L103.234 6.04429Z" fill="#45BC77"/>
<path d="M136.56 6.21982L138.591 11.636C138.837 12.2929 139.337 12.8234 139.978 13.1085L145.408 15.5227C146.688 16.0917 146.688 17.9083 145.408 18.4773L139.978 20.8916C139.337 21.1766 138.837 21.7071 138.591 22.364L136.56 27.7802C136.036 29.1791 134.057 29.1791 133.532 27.7802L131.502 22.364C131.256 21.7071 130.756 21.1766 130.115 20.8916L124.685 18.4773C123.405 17.9083 123.405 16.0917 124.685 15.5227L130.115 13.1085C130.756 12.8234 131.256 12.2929 131.502 11.636L133.532 6.21982C134.057 4.82092 136.036 4.82092 136.56 6.21982Z" stroke="#45BC77"/>
</g>
<rect x="1.30908" y="1.25781" width="148.152" height="31.4844" stroke="black"/>
<defs>
<clipPath id="clip0_49_8977">
<rect x="0.809082" y="0.757812" width="149.152" height="32.4844" fill="white"/>
</clipPath>
</defs>
</svg>
