<svg width="150" height="33" viewBox="0 0 150 33" fill="none" xmlns="http://www.w3.org/2000/svg">
<g clip-path="url(#clip0_49_8971)">
<path d="M13.3609 5.54429C14.0476 3.71277 16.6383 3.71276 17.325 5.54428L19.3557 10.9605C19.5549 11.4919 19.9592 11.921 20.4777 12.1516L25.9078 14.5658C27.5835 15.3109 27.5835 17.6892 25.9078 18.4342L20.4777 20.8484C19.9592 21.079 19.5549 21.5081 19.3557 22.0395L17.325 27.4557C16.6383 29.2873 14.0476 29.2873 13.3609 27.4557L11.3303 22.0395C11.131 21.5081 10.7268 21.079 10.2082 20.8484L4.77813 18.4342C3.10239 17.6892 3.10239 15.3109 4.77812 14.5658L10.2082 12.1516C10.7268 11.921 11.131 11.4919 11.3303 10.9605L13.3609 5.54429Z" fill="#45BC77"/>
<path d="M43.1915 5.54429C43.8782 3.71277 46.4689 3.71276 47.1556 5.54428L49.1862 10.9605C49.3855 11.4919 49.7897 11.921 50.3083 12.1516L55.7384 14.5658C57.4141 15.3109 57.4141 17.6892 55.7384 18.4342L50.3083 20.8484C49.7897 21.079 49.3855 21.5081 49.1862 22.0395L47.1556 27.4557C46.4689 29.2873 43.8782 29.2873 43.1915 27.4557L41.1608 22.0395C40.9616 21.5081 40.5573 21.079 40.0388 20.8484L34.6087 18.4342C32.933 17.6892 32.933 15.3109 34.6087 14.5658L40.0388 12.1516C40.5573 11.921 40.9616 11.4919 41.1608 10.9605L43.1915 5.54429Z" fill="#45BC77"/>
<path d="M73.0216 5.54429C73.7083 3.71277 76.299 3.71276 76.9856 5.54428L79.0163 10.9605C79.2155 11.4919 79.6198 11.921 80.1384 12.1516L85.5685 14.5658C87.2442 15.3109 87.2442 17.6892 85.5685 18.4342L80.1384 20.8484C79.6198 21.079 79.2155 21.5081 79.0163 22.0395L76.9856 27.4557C76.299 29.2873 73.7083 29.2873 73.0216 27.4557L70.9909 22.0395C70.7917 21.5081 70.3874 21.079 69.8688 20.8484L64.4388 18.4342C62.763 17.6892 62.763 15.3109 64.4388 14.5658L69.8688 12.1516C70.3874 11.921 70.7917 11.4919 70.9909 10.9605L73.0216 5.54429Z" fill="#45BC77"/>
<path d="M102.853 5.54429C103.539 3.71277 106.13 3.71276 106.817 5.54428L108.847 10.9605C109.047 11.4919 109.451 11.921 109.969 12.1516L115.4 14.5658C117.075 15.3109 117.075 17.6892 115.4 18.4342L109.969 20.8484C109.451 21.079 109.047 21.5081 108.847 22.0395L106.817 27.4557C106.13 29.2873 103.539 29.2873 102.853 27.4557L100.822 22.0395C100.623 21.5081 100.218 21.079 99.6999 20.8484L94.2698 18.4342C92.5941 17.6892 92.5941 15.3109 94.2698 14.5658L99.6999 12.1516C100.218 11.921 100.623 11.4919 100.822 10.9605L102.853 5.54429Z" fill="#45BC77"/>
<path d="M132.683 5.54429C133.369 3.71277 135.96 3.71276 136.647 5.54428L138.677 10.9605C138.877 11.4919 139.281 11.921 139.8 12.1516L145.23 14.5658C146.905 15.3109 146.905 17.6892 145.23 18.4342L139.8 20.8484C139.281 21.079 138.877 21.5081 138.677 22.0395L136.647 27.4557C135.96 29.2873 133.369 29.2873 132.683 27.4557L130.652 22.0395C130.453 21.5081 130.049 21.079 129.53 20.8484L124.1 18.4342C122.424 17.6892 122.424 15.3109 124.1 14.5658L129.53 12.1516C130.049 11.921 130.453 11.4919 130.652 10.9605L132.683 5.54429Z" fill="#45BC77"/>
</g>
<defs>
<clipPath id="clip0_49_8971">
<rect width="149.152" height="32.4844" fill="white" transform="translate(0.427734 0.257812)"/>
</clipPath>
</defs>
</svg>
