<svg width="52" height="53" viewBox="0 0 52 53" fill="none" xmlns="http://www.w3.org/2000/svg">
<g clip-path="url(#clip0_58_22587)">
<rect x="5.17559" y="4.68291" width="41.1265" height="41.1265" rx="8.5203" stroke="#24633F" stroke-width="3.06016"/>
</g>
<g clip-path="url(#clip1_58_22587)">
<rect x="-1.53008" y="1.53008" width="41.1265" height="41.1265" rx="8.5203" transform="matrix(-1 0 0 1 45.3695 3.15283)" stroke="#24633F" stroke-width="3.06016"/>
</g>
<g clip-path="url(#clip2_58_22587)">
<rect x="46.8996" y="47.3396" width="41.1265" height="41.1265" rx="8.5203" transform="rotate(180 46.8996 47.3396)" stroke="#24633F" stroke-width="3.06016"/>
</g>
<g clip-path="url(#clip3_58_22587)">
<rect x="1.53008" y="-1.53008" width="41.1265" height="41.1265" rx="8.5203" transform="matrix(1 0 0 -1 3.64551 45.8095)" stroke="#24633F" stroke-width="3.06016"/>
</g>
<g clip-path="url(#clip4_58_22587)">
<rect x="26.0376" y="2.16386" width="31.9324" height="31.9324" rx="6.42908" transform="rotate(45 26.0376 2.16386)" stroke="#45BC77" stroke-width="3.06016"/>
</g>
<g clip-path="url(#clip5_58_22587)">
<rect x="2.16001" y="26.1403" width="31.9324" height="31.9324" rx="6.42908" transform="rotate(-41.5807 2.16001 26.1403)" stroke="#45BC77" stroke-width="3.06016"/>
</g>
<g clip-path="url(#clip6_58_22587)">
<rect x="26.0376" y="49.8588" width="31.9324" height="31.9324" rx="6.42908" transform="rotate(-135 26.0376 49.8588)" stroke="#45BC77" stroke-width="3.06016"/>
</g>
<g clip-path="url(#clip7_58_22587)">
<rect x="49.8361" y="26.3984" width="31.9324" height="31.9324" rx="6.42908" transform="rotate(135 49.8361 26.3984)" stroke="#45BC77" stroke-width="3.06016"/>
</g>
<path d="M36.0074 27.1055C36.3979 26.715 36.3979 26.0819 36.0074 25.6913L29.6434 19.3274C29.2529 18.9368 28.6197 18.9368 28.2292 19.3274C27.8387 19.7179 27.8387 20.3511 28.2292 20.7416L33.8861 26.3984L28.2292 32.0553C27.8387 32.4458 27.8387 33.079 28.2292 33.4695C28.6197 33.86 29.2529 33.86 29.6434 33.4695L36.0074 27.1055ZM16.7754 27.3984H35.3003V25.3984H16.7754V27.3984Z" fill="#24633F"/>
<defs>
<clipPath id="clip0_58_22587">
<rect width="12.4382" height="12.2406" fill="white" transform="translate(2.32178 3.06006)"/>
</clipPath>
<clipPath id="clip1_58_22587">
<rect width="12.4382" height="12.2406" fill="white" transform="matrix(-1 0 0 1 48.9648 3.06006)"/>
</clipPath>
<clipPath id="clip2_58_22587">
<rect width="12.4382" height="12.2406" fill="white" transform="matrix(-1 0 0 -1 48.9648 48.9624)"/>
</clipPath>
<clipPath id="clip3_58_22587">
<rect width="12.4382" height="12.2406" fill="white" transform="matrix(1 0 0 -1 2.32178 48.9624)"/>
</clipPath>
<clipPath id="clip4_58_22587">
<rect width="9.18047" height="9.18047" fill="white" transform="translate(26.0376) rotate(45)"/>
</clipPath>
<clipPath id="clip5_58_22587">
<rect width="9.18047" height="9.18047" fill="white" transform="translate(0 26.0112) rotate(-41.5807)"/>
</clipPath>
<clipPath id="clip6_58_22587">
<rect width="9.18047" height="9.18047" fill="white" transform="translate(26.0376 52.0227) rotate(-135)"/>
</clipPath>
<clipPath id="clip7_58_22587">
<rect width="9.18047" height="9.18047" fill="white" transform="translate(52 26.3984) rotate(135)"/>
</clipPath>
</defs>
</svg>
